<svg xmlns="http://www.w3.org/2000/svg" viewBox="0 0 48 48" width="48" height="48" shape-rendering="crispEdges" role="img" aria-label="张居正像素半身像">
<title>张居正像素半身像</title>
<rect x="0" y="0" width="48" height="48" fill="#2f3b45"/><rect x="4" y="4" width="40" height="40" fill="#f2d7a033"/><rect x="16" y="6" width="16" height="6" fill="#1b2027"/><rect x="12" y="12" width="24" height="6" fill="#1b2027"/><rect x="10" y="18" width="4" height="12" fill="#1b2027"/><rect x="34" y="18" width="4" height="12" fill="#1b2027"/><rect x="14" y="14" width="20" height="22" fill="#d8b57a"/><rect x="12" y="20" width="4" height="10" fill="#d8b57a"/><rect x="34" y="20" width="4" height="10" fill="#d8b57a"/><rect x="18" y="22" width="4" height="3" fill="#2a1a12"/><rect x="28" y="22" width="4" height="3" fill="#2a1a12"/><rect x="23" y="26" width="2" height="3" fill="#9f6a4d"/><rect x="20" y="31" width="10" height="2" fill="#7e3c32"/><rect x="14" y="36" width="20" height="4" fill="#b9835a"/><rect x="8" y="40" width="32" height="8" fill="#8b2d22"/><rect x="22" y="38" width="4" height="10" fill="#f1d99f"/><rect x="18" y="34" width="12" height="4" fill="#1b2027"/>
</svg>